<?xml version="1.0" standalone="no"?>
<!DOCTYPE svg PUBLIC "-//W3C//DTD SVG 1.1//EN" "http://www.w3.org/Graphics/SVG/1.1/DTD/svg11.dtd" >
<svg xmlns="http://www.w3.org/2000/svg">
<metadata>
This is a custom SVG webfont generated by Font Squirrel.
Copyright   : Generated in 2009 by FontLab Studio Copyright info pending
</metadata>
<defs>
<font id="TitilliumText14L600wt" horiz-adv-x="1084" >
<font-face units-per-em="2048" ascent="1536" descent="-512" />
<missing-glyph horiz-adv-x="480" />
<glyph unicode=" "  horiz-adv-x="480" />
<glyph unicode="&#x09;" horiz-adv-x="480" />
<glyph unicode="&#xa0;" horiz-adv-x="480" />
<glyph unicode="!" d="M450 0v270h210v-270h-210zM450 1434h210l-6 -940h-198z" />
<glyph unicode="&#x22;" horiz-adv-x="664" d="M82 1422h186l-6 -472h-178zM404 1422h186l-6 -472h-178z" />
<glyph unicode="#" d="M12 358v164h216v316h-216v164h216v358h172v-358h282v358h172v-358h218v-164h-218v-316h218v-164h-218v-358h-172v358h-282v-358h-172v358h-216zM400 522h282v316h-282v-316z" />
<glyph unicode="$" d="M124 1034q0 188 113 264t333 76h40l34 244h70l-32 -248l288 -28l-6 -70q-160 18 -290 28l-74 -566q94 -18 148 -32t111 -40t86 -62t47 -94t18 -138q0 -200 -110 -291t-326 -91q-46 0 -72 2l-28 -234q-72 6 -72 14l28 224l-294 26l8 72q154 -20 294 -30l80 610 q-104 20 -167 40t-120 59t-82 104t-25 161zM204 1038q0 -148 71 -204t253 -88l74 558h-32q-184 0 -275 -60t-91 -206zM512 56h60q358 0 358 310q0 82 -18 134t-67 83t-101 45t-154 30z" />
<glyph unicode="%" d="M24 1148q0 288 242 288q240 0 240 -296q0 -284 -240 -284q-242 0 -242 292zM174 1148q0 -88 19 -128t73 -40q52 0 71 40t19 128t-19 126t-71 38q-54 0 -73 -38t-19 -126zM272 12l420 1446l136 -40l-420 -1448zM596 294q0 290 242 290q240 0 240 -290q0 -292 -240 -292 q-242 0 -242 292zM746 294q0 -88 20 -128t72 -40t71 39t19 129q0 88 -18 126t-72 38t-73 -38t-19 -126z" />
<glyph unicode="&#x26;" horiz-adv-x="1432" d="M86 414q0 158 78 255t228 161q-64 80 -85 141t-21 155q0 148 100 234t276 86q186 0 281 -87t95 -247q0 -140 -67 -227t-231 -177l250 -250q36 118 54 262l188 -4q-30 -214 -94 -380l252 -240l-116 -132l-234 216q-102 -114 -208 -164t-262 -50q-238 0 -361 116t-123 332z M284 416q0 -128 75 -199t217 -71q104 0 176 36t142 120l-382 392q-228 -86 -228 -278zM482 1102q0 -128 90 -224l46 -46q124 62 174 117t50 145q0 172 -180 172t-180 -164z" />
<glyph unicode="'" horiz-adv-x="204" d="M0 1420h190l-10 -480h-176z" />
<glyph unicode="(" horiz-adv-x="532" d="M52 616q0 182 50 412t98 368l50 140h208q-22 -60 -54 -159t-86 -344t-54 -417q0 -168 48 -386t96 -352l50 -134h-208q-22 52 -55 140t-88 319t-55 413z" />
<glyph unicode=")" horiz-adv-x="532" d="M40 -246q22 60 55 159t87 344t54 417q0 168 -49 386t-99 352l-48 134h210q22 -52 55 -140t88 -319t55 -413t-50 -412t-98 -370l-50 -138h-210z" />
<glyph unicode="*" d="M240 938l218 162l-212 156l72 98l212 -152l84 250l120 -38l-82 -256h262v-120h-264l82 -254l-118 -34l-84 256l-216 -162z" />
<glyph unicode="+" horiz-adv-x="986" d="M-20 476v176h422v422h180v-422h426v-176h-426v-426h-180v426h-422z" />
<glyph unicode="," horiz-adv-x="348" d="M30 -252l100 492h210l-116 -492h-194z" />
<glyph unicode="-" horiz-adv-x="900" d="M136 482v188h630v-188h-630z" />
<glyph unicode="." horiz-adv-x="506" d="M136 0v270h210v-270h-210z" />
<glyph unicode="/" d="M158 34l576 1426l184 -66l-576 -1424z" />
<glyph unicode="0" d="M38 660q0 390 125 552t377 162q254 0 378 -162t124 -554q0 -372 -125 -526t-377 -154t-377 155t-125 527zM252 658q0 -282 68 -386t222 -104t221 104t67 388q0 300 -65 412t-223 112q-156 0 -223 -112t-67 -414z" />
<glyph unicode="1" d="M108 1062l432 290h188v-1352h-200v1122l-328 -216z" />
<glyph unicode="2" d="M104 0v182l362 362q106 108 153 161t87 127t40 146q0 108 -65 154t-205 46q-66 0 -153 -10t-143 -20l-54 -10l-14 182q216 54 406 54q220 0 326 -90t106 -280q0 -148 -65 -257t-213 -257l-302 -300h610v-190h-876z" />
<glyph unicode="3" d="M98 26l22 180q224 -36 404 -36q266 2 266 218q0 202 -252 210h-272v182h272q78 0 150 63t72 147q0 104 -61 148t-191 44q-80 0 -173 -9t-147 -17l-52 -10l-20 178q222 50 402 50q244 0 345 -85t101 -273q0 -66 -18 -119t-55 -91t-56 -52t-57 -38q112 -46 165 -113 t53 -209q0 -210 -108 -313t-340 -103q-92 0 -205 12t-179 24z" />
<glyph unicode="4" d="M54 226v164l378 962h220l-372 -936h398v354h198v-354h152v-190h-152v-238h-198v238h-624z" />
<glyph unicode="5" d="M90 38l22 182q252 -50 430 -50q118 0 188 70t70 194q0 234 -254 234q-66 0 -135 -16t-105 -32l-36 -16l-158 32l44 718h800v-192h-620l-34 -372q150 64 264 64q216 0 328 -98t112 -312q0 -226 -120 -345t-338 -119q-92 0 -207 14t-183 30z" />
<glyph unicode="6" d="M66 678q0 380 132 538t394 158q76 0 170 -11t150 -21l54 -10l-18 -182q-184 34 -356 34q-166 0 -244 -97t-78 -305q168 70 300 70q228 0 339 -104t111 -320q0 -220 -122 -335t-352 -115q-252 0 -366 173t-114 527zM268 608q2 -214 65 -328t213 -114q268 0 268 262 q0 242 -258 242q-64 -2 -136 -18t-112 -30z" />
<glyph unicode="7" d="M100 1162v192h848v-248l-512 -1134l-186 54l494 1088v48h-644z" />
<glyph unicode="8" d="M40 344q0 140 51 215t163 143q-104 62 -147 132t-43 186q0 174 127 264t357 90t362 -91t132 -265q0 -124 -44 -190t-156 -126q114 -62 167 -134t53 -202q0 -388 -514 -388q-508 0 -508 366zM254 386q0 -218 294 -218q302 0 302 224q0 88 -51 136t-149 78h-206 q-190 -58 -190 -220zM276 992q0 -76 41 -125t127 -85h206q90 36 135 85t45 125q0 104 -69 148t-211 44q-140 0 -207 -44t-67 -148z" />
<glyph unicode="9" d="M58 932q0 210 129 326t347 116q250 0 364 -182t114 -528q0 -378 -130 -532t-392 -154q-76 0 -172 11t-154 23l-58 10l18 180q194 -32 366 -32q164 0 239 93t77 289l-46 -12q-44 -12 -119 -25t-133 -13q-218 0 -334 109t-116 321zM262 932q0 -248 262 -248q58 0 129 12 t113 24l42 14q-6 454 -274 454q-126 0 -199 -67t-73 -189z" />
<glyph unicode=":" horiz-adv-x="396" d="M106 0v270h210v-270h-210zM106 636v272h210v-272h-210z" />
<glyph unicode=";" horiz-adv-x="436" d="M34 -240h182l140 504h-210zM132 636v272h208v-272h-208z" />
<glyph unicode="&#x3c;" d="M130 532v202l710 410v-204l-522 -304l522 -316v-206q-78 40 -357 208z" />
<glyph unicode="=" d="M60 284v178h948v-178h-948zM60 690v178h948v-178h-948z" />
<glyph unicode="&#x3e;" d="M130 114v206l522 316l-522 304v204l710 -410v-202l-353 -210q-279 -168 -357 -208z" />
<glyph unicode="?" horiz-adv-x="790" d="M14 1400q236 58 346 58q228 0 334 -85t106 -287q0 -98 -39 -180t-95 -134t-112 -96t-95 -90t-39 -94v-78h-204v84q0 74 39 137t94 107l109 89q54 45 93 103t39 128q0 106 -52 151t-186 45q-44 0 -123 -11t-135 -23l-56 -12zM212 0v270h210v-270h-210z" />
<glyph unicode="@" horiz-adv-x="2016" d="M98 534q0 950 934 950q454 0 670 -214t216 -646v-34q0 -186 -24 -308t-75 -187t-114 -90t-157 -25t-152 22t-96 82q-204 -102 -342 -102q-172 0 -270 110t-98 404q0 274 89 410t319 136q36 0 92 -12t94 -24l36 -12v30h194v-410q0 -214 12 -307t37 -118t85 -25q64 0 97 25 t55 121t22 280v36q0 360 -160 516t-530 156q-374 0 -556 -185t-182 -579q0 -422 170 -595t568 -173l294 22l8 -188q-204 -20 -302 -20q-236 0 -403 46t-290 153t-182 294t-59 461zM786 494q0 -186 50 -255t136 -69q104 0 264 68q-16 98 -16 302v286q-114 34 -186 34 q-148 0 -198 -81t-50 -285z" />
<glyph unicode="A" horiz-adv-x="1238" d="M54 0l364 1422h408l360 -1420h-200l-94 318h-552l-88 -320h-198zM382 510h470l-182 726h-100z" />
<glyph unicode="B" horiz-adv-x="1256" d="M170 0v1422h522q426 0 426 -354q0 -138 -41 -214t-131 -124q104 -40 158 -115t54 -215q0 -400 -446 -400h-542zM366 184h338q122 0 185 53t63 177q0 212 -254 212h-332v-442zM366 806h328q222 0 222 230q0 106 -56 153t-176 47h-318v-430z" />
<glyph unicode="C" horiz-adv-x="1094" d="M96 708q0 390 113 563t411 173q80 0 179 -13t157 -27l60 -12l-6 -178q-230 36 -364 36q-204 0 -273 -120t-69 -422q0 -298 68 -417t278 -119q54 0 144 8t154 16l62 10l6 -180q-234 -48 -396 -48q-158 0 -262 45t-161 143t-79 225t-22 317z" />
<glyph unicode="D" horiz-adv-x="1304" d="M170 0v1422h492q160 0 269 -46t168 -139t84 -213t25 -288q0 -138 -14 -244t-51 -201t-97 -157t-157 -98t-227 -36h-492zM366 188h296q104 0 174 42t105 123t49 171t14 212q0 248 -71 372t-271 124h-296v-1044z" />
<glyph unicode="E" horiz-adv-x="1148" d="M170 0v1422h874v-192h-678v-426h556v-186h-556v-428h678v-190h-874z" />
<glyph unicode="F" horiz-adv-x="1122" d="M170 0v1422h874v-192h-678v-502h556v-190h-556v-538h-196z" />
<glyph unicode="G" horiz-adv-x="1236" d="M98 710q0 378 123 556t429 178q96 0 213 -14t187 -30l70 -14l-8 -174q-250 38 -436 38q-218 0 -295 -121t-77 -419t74 -419t292 -121q30 0 67 2t68 5t58 7t43 6t18 2v364h-200v178h396v-708q-290 -48 -464 -48q-312 0 -435 181t-123 551z" />
<glyph unicode="H" horiz-adv-x="1392" d="M170 0v1422h198v-606h654v606h200v-1422h-200v624h-654v-624h-198z" />
<glyph unicode="I" horiz-adv-x="526" d="M164 0v1422h198v-1422h-198z" />
<glyph unicode="J" horiz-adv-x="634" d="M66 38q122 0 163 37t41 169v1178h198q0 -217 2 -595q2 -379 2 -599q0 -122 -22 -196t-77 -113t-123 -52t-184 -13v184z" />
<glyph unicode="K" horiz-adv-x="1218" d="M170 0v1422h198v-640l218 12l318 628h230l-370 -712l390 -710h-234l-330 602l-222 -12v-590h-198z" />
<glyph unicode="L" horiz-adv-x="1032" d="M170 0v1422h198v-1232h586v-190h-784z" />
<glyph unicode="M" horiz-adv-x="1738" d="M170 0v1422h334l366 -1140l370 1140h328v-1422h-198v1180h-30l-366 -1126h-210l-364 1126h-32v-1180h-198z" />
<glyph unicode="N" horiz-adv-x="1422" d="M170 0v1422h336l508 -1180h40v1180h200v-1422h-328l-516 1180h-42v-1180h-198z" />
<glyph unicode="O" horiz-adv-x="1328" d="M98 702q0 374 126 558t440 184t440 -183t126 -559q0 -380 -124 -552t-442 -172q-316 0 -441 175t-125 549zM304 702q0 -284 75 -408t285 -124q212 0 286 122t74 410q0 284 -76 417t-284 133t-284 -133t-76 -417z" />
<glyph unicode="P" horiz-adv-x="1230" d="M170 0v1422h516q468 0 468 -470q0 -242 -117 -371t-351 -129h-318v-452h-198zM368 644h318q264 0 264 308q0 142 -64 210t-200 68h-318v-586z" />
<glyph unicode="Q" horiz-adv-x="1328" d="M98 702q0 374 126 558t440 184t440 -183t126 -559q0 -254 -51 -410t-173 -232l170 -280l-184 -86l-184 298q-76 -14 -144 -14q-316 0 -441 175t-125 549zM304 702q0 -284 75 -408t285 -124q212 0 286 122t74 410q0 284 -76 417t-284 133t-284 -133t-76 -417z" />
<glyph unicode="R" horiz-adv-x="1268" d="M170 0v1422h530q238 0 352 -107t114 -339q0 -162 -59 -261t-183 -149l250 -566h-220l-226 512h-32h-328v-512h-198zM368 700h334q258 0 258 272q0 260 -260 260h-332v-532z" />
<glyph unicode="S" horiz-adv-x="1088" d="M104 1058q0 194 122 291t334 97q70 0 169 -12t163 -24l64 -12l-16 -180q-262 34 -380 34q-254 0 -254 -190q0 -110 57 -153t249 -101q210 -66 292 -144t82 -254q0 -430 -448 -430q-68 0 -176 12t-182 24l-74 10l20 182q264 -34 410 -34q124 0 186 54t62 176q0 98 -53 139 t-213 89q-124 38 -194 69t-125 79t-75 113t-20 165z" />
<glyph unicode="T" horiz-adv-x="998" d="M-12 1230v192h1024v-192h-410v-1230h-200v1230h-414z" />
<glyph unicode="U" horiz-adv-x="1310" d="M148 442v980h198v-980q0 -144 79 -205t227 -61q152 0 231 61t79 205v980h202v-980q0 -242 -128 -351t-384 -109q-250 0 -377 109t-127 351z" />
<glyph unicode="V" horiz-adv-x="1226" d="M54 1422h206l304 -1232h102l300 1232h208l-354 -1422h-410z" />
<glyph unicode="W" horiz-adv-x="1868" d="M66 1422h206l246 -1220h50l256 1212h224l258 -1212h50l242 1220h206l-306 -1422h-330l-234 1124l-226 -1124h-332z" />
<glyph unicode="X" horiz-adv-x="1188" d="M52 0l412 704l-412 718h222l322 -564l320 564h222l-406 -718l406 -704h-222l-320 556l-322 -556h-222z" />
<glyph unicode="Y" horiz-adv-x="1144" d="M32 1422h222l320 -590l314 590h224l-438 -814v-608h-198v608z" />
<glyph unicode="Z" horiz-adv-x="1166" d="M122 0v220l674 972v38h-674v192h922v-222l-674 -972v-38h674v-190h-922z" />
<glyph unicode="[" horiz-adv-x="614" d="M74 1534h460v-188h-262v-1410h262v-188h-458z" />
<glyph unicode="\" horiz-adv-x="1704" d="M430 1426l214 12l624 -1426l-214 -12z" />
<glyph unicode="]" horiz-adv-x="614" d="M-44 -64h264v1410h-264v188h462l-2 -1786h-460v188z" />
<glyph unicode="^" horiz-adv-x="1332" d="M32 900l372 710h286l372 -710h-286l-226 440l-230 -440h-288z" />
<glyph unicode="_" horiz-adv-x="1064" d="M56 -10h876v-176h-876v176z" />
<glyph unicode="`" horiz-adv-x="1116" d="M232 1370l72 180l470 -190l-70 -172z" />
<glyph unicode="a" horiz-adv-x="1072" d="M94 300q0 152 80 222t248 84l286 24v74q0 156 -150 156q-68 0 -166 -7t-164 -13l-64 -8l-8 172q256 40 412 40q170 0 253 -80t83 -258v-462q2 -50 26 -71t74 -27l-6 -166q-104 0 -159 17t-101 57q-180 -76 -358 -76q-138 0 -212 85t-74 237zM290 304q0 -158 126 -158 q58 0 131 13t117 25l44 12v284l-264 -22q-154 -12 -154 -154z" />
<glyph unicode="b" horiz-adv-x="1112" d="M166 2v1456h192v-474q148 60 274 60q210 0 299 -118t89 -400q0 -310 -108 -429t-386 -119q-50 0 -140 6t-154 12zM358 164q120 -10 168 -10q180 0 238 82t58 290q0 184 -48 262t-164 78q-50 0 -113 -11t-101 -21l-38 -10v-660z" />
<glyph unicode="c" horiz-adv-x="892" d="M92 526q0 278 99 398t329 120q46 0 120 -8t124 -16l52 -8l-10 -168q-160 18 -238 18q-164 0 -222 -73t-58 -263q0 -212 55 -288t227 -76l238 16l8 -168q-200 -32 -300 -32q-238 0 -331 124t-93 424z" />
<glyph unicode="d" horiz-adv-x="1118" d="M92 512q0 276 101 404t325 128q28 0 70 -4t75 -8l63 -8q30 -4 34 -4v414h192v-1434h-192v60q-150 -80 -288 -80q-190 0 -285 118t-95 414zM288 510q0 -200 54 -275t156 -77q52 0 118 15t104 31l40 14v632q-220 20 -230 20q-132 0 -187 -86t-55 -274z" />
<glyph unicode="e" horiz-adv-x="1038" d="M92 504q0 540 436 540q214 0 319 -114t105 -358l-12 -142h-652q0 -142 57 -208t191 -66q70 0 165 4t155 8l58 6l4 -154q-234 -42 -408 -42q-226 2 -322 128t-96 398zM286 582h474q0 158 -54 224t-178 66q-122 0 -181 -69t-61 -221z" />
<glyph unicode="f" horiz-adv-x="690" d="M50 848v174h122v80q0 216 63 296t221 80l216 -18l-2 -160q-106 4 -170 4q-78 0 -106 -42t-28 -162v-78h282v-174h-282v-848h-194v848h-122z" />
<glyph unicode="g" horiz-adv-x="1072" d="M88 -178q0 78 37 134t121 120q-64 42 -64 146q0 20 19 60t37 70l18 30q-156 84 -156 308q0 184 107 269t293 85q44 0 96 -6t84 -14l30 -6l304 6v-160h-166q54 -64 54 -174q0 -198 -98 -274t-310 -76q-54 0 -94 8q-32 -80 -32 -106q0 -56 38 -70t194 -14q236 0 324 -63 t88 -241q0 -346 -466 -346q-246 0 -352 68t-106 246zM280 -160q0 -86 59 -122t209 -36q136 0 202 39t66 123q0 92 -47 118t-185 28l-210 10q-54 -42 -74 -75t-20 -85zM294 690q0 -98 45 -142t155 -44q116 0 165 41t49 145q0 108 -47 148t-163 40q-108 0 -156 -43t-48 -145z " />
<glyph unicode="h" horiz-adv-x="1152" d="M166 0v1474h192v-494q166 64 296 64q204 0 277 -116t73 -394v-534h-192v532q0 186 -38 259t-156 73q-50 0 -115 -12t-105 -24l-40 -10v-818h-192z" />
<glyph unicode="i" horiz-adv-x="504" d="M156 0v1022h194v-1022h-194zM156 1220v216h194v-216h-194z" />
<glyph unicode="j" horiz-adv-x="524" d="M-66 -322q152 86 196 146t44 188v1010h194v-1012q0 -194 -70 -291t-280 -203zM174 1232v214h194v-214h-194z" />
<glyph unicode="k" horiz-adv-x="1032" d="M166 0v1458h192v-840l140 12l270 392h220l-316 -476l324 -546h-220l-274 442l-144 -12v-430h-192z" />
<glyph unicode="l" horiz-adv-x="514" d="M160 0v1458h194v-1458h-194z" />
<glyph unicode="m" horiz-adv-x="1756" d="M166 0v1022h190v-62q106 60 220 74q41 7 79 7q15 0 29 -1q136 -6 208 -86q238 90 366 90q204 0 277 -113t73 -397v-534h-192v464q0 238 -33 319t-161 81q-54 0 -117 -16t-99 -30t-40 -18q22 -56 22 -270v-530h-194v526q0 198 -36 268t-156 70q-50 0 -111 -16t-97 -32 l-36 -14v-802h-192z" />
<glyph unicode="n" horiz-adv-x="1158" d="M166 0v1022h192v-60q170 82 296 82q206 0 279 -116t73 -394v-534h-194v532q0 186 -37 259t-155 73q-50 0 -116 -16t-106 -32l-40 -14v-802h-192z" />
<glyph unicode="o" horiz-adv-x="1080" d="M92 520q0 266 103 395t347 129q236 0 342 -131t106 -393q0 -274 -99 -408t-349 -134q-252 0 -351 132t-99 410zM288 520q0 -200 51 -283t203 -83q150 0 200 85t50 281q0 186 -57 268t-193 82q-144 0 -199 -79t-55 -271z" />
<glyph unicode="p" horiz-adv-x="1114" d="M166 1022h192v-62q144 84 280 84q200 0 292 -122t92 -400q0 -304 -105 -424t-347 -120q-114 0 -212 22v-446h-192v1468zM358 170q144 -16 200 -16q150 0 208 83t58 287q0 186 -55 265t-163 79q-48 0 -110 -17t-100 -35l-38 -16v-630z" />
<glyph unicode="q" horiz-adv-x="1098" d="M92 496q0 274 107 411t361 137l374 -22v-1470h-192v472q-92 -46 -222 -46q-228 0 -328 131t-100 387zM286 498q0 -172 55 -258t179 -86q50 0 105 13t87 25l30 14v656q-122 8 -182 8q-150 0 -212 -89t-62 -283z" />
<glyph unicode="r" horiz-adv-x="732" d="M166 1022h192v-120q146 108 334 144v-204q-84 -16 -167 -47t-125 -55l-42 -24v-716h-192v1022z" />
<glyph unicode="s" horiz-adv-x="1004" d="M106 736q0 160 108 234t272 74q68 0 162 -10t156 -22l60 -10l-4 -164q-236 32 -362 32q-98 0 -147 -29t-49 -101q0 -58 46 -84t186 -48q208 -34 286 -96t78 -208q0 -174 -104 -250t-300 -76q-62 0 -156 11t-158 23l-62 10l8 166q248 -34 352 -34q120 0 172 31t52 111 q0 64 -43 89t-181 47q-206 36 -289 96t-83 208z" />
<glyph unicode="t" horiz-adv-x="734" d="M48 848v174h136v308h192v-308h302v-174h-302v-446q0 -146 22 -194t106 -48l174 10l10 -168q-136 -24 -208 -24q-170 0 -233 80t-63 298v492h-136z" />
<glyph unicode="u" horiz-adv-x="1144" d="M150 490v532h194v-530q0 -200 34 -269t156 -69q50 0 113 15t101 31l38 16v806h194v-1022h-194v60q-160 -82 -286 -82q-210 0 -280 112t-70 400z" />
<glyph unicode="v" horiz-adv-x="986" d="M38 1022h202l220 -860h68l224 860h198l-276 -1022h-360z" />
<glyph unicode="w" horiz-adv-x="1544" d="M46 1022h192l180 -848h38l214 830h204l214 -830h38l180 848h194l-228 -1022h-320l-182 744l-182 -744h-318z" />
<glyph unicode="x" horiz-adv-x="948" d="M44 0l304 510l-304 512h208l222 -370l222 370h208l-306 -512l306 -510h-210l-220 370l-222 -370h-208z" />
<glyph unicode="y" horiz-adv-x="988" d="M38 1022h194l230 -836h62l234 836h192l-288 -1046l-114 -420h-192l122 444h-160z" />
<glyph unicode="z" horiz-adv-x="980" d="M110 0v174l526 676h-526v174h760v-174l-526 -676h526v-174h-760z" />
<glyph unicode="{" horiz-adv-x="648" d="M28 558v162q114 28 158 77t44 133q0 26 -7 123t-7 137q0 190 95 271t313 89l2 -188q-122 -8 -163 -48t-41 -136q0 -34 7 -130t7 -124q0 -124 -44 -184t-160 -98q112 -38 158 -103t46 -189q0 -36 -7 -121t-7 -119q0 -96 42 -138t162 -50l-2 -188q-216 8 -312 91t-96 265 q0 44 7 136t7 114q0 82 -44 133t-158 85z" />
<glyph unicode="|" d="M432 -332v1828h198v-1828h-198z" />
<glyph unicode="}" horiz-adv-x="648" d="M14 -86q122 8 164 48t42 136q0 34 -8 130t-8 124q0 124 45 184t161 98q-114 38 -160 103t-46 189q0 36 8 121t8 119q0 94 -43 137t-163 51l2 188q216 -8 313 -91t97 -265q0 -44 -7 -136t-7 -114q0 -84 44 -134t156 -84v-162q-114 -28 -157 -76t-43 -134q0 -26 7 -123 t7 -137q0 -190 -96 -271t-314 -89z" />
<glyph unicode="~" horiz-adv-x="1704" />
<glyph unicode="&#xa2;" horiz-adv-x="894" d="M64 510q0 422 366 444v232h166v-238l188 -20l-6 -170q-178 12 -256 12q-144 0 -202 -57t-58 -203q0 -148 57 -202t211 -54l250 12l6 -170q-106 -14 -190 -20v-238h-166v232q-188 10 -277 110t-89 330z" />
<glyph unicode="&#xa3;" horiz-adv-x="1166" d="M234 0v180h140v524h-94v176h94v120q0 228 74 310t232 82q34 0 104 -10t124 -20l52 -10v-192q-130 34 -198 34q-118 0 -154 -55t-40 -259h298v-178h-298q0 -86 -1 -260t-1 -262h282l154 32l30 -176l-166 -34q-106 0 -316 -1t-316 -1z" />
<glyph unicode="&#xa5;" horiz-adv-x="1104" d="M14 1352h222l320 -512l314 512h224l-334 -558h248v-166h-342l-10 -38v-98h352v-166h-352v-326h-200v326h-358v166h358v98l-10 38h-348v166h252z" />
<glyph unicode="&#xa6;" d="M430 -332v808h198v-808h-198zM430 724v812h198v-812h-198z" />
<glyph unicode="&#xa7;" d="M176 512q0 118 98 228q-90 66 -90 232q0 158 91 226t267 68q58 0 138 -7t132 -13l50 -6l-4 -66q-218 26 -316 26q-286 0 -286 -224q0 -72 17 -117t61 -72t91 -39t135 -26q182 -28 261 -84t79 -202q0 -124 -78 -258q70 -58 70 -192q0 -324 -354 -324q-54 0 -140 7t-146 13 l-58 6l6 66q226 -28 338 -28q284 0 284 258q0 50 -14 85t-33 55t-63 35t-76 21t-100 16q-198 30 -279 89t-81 227zM248 516q0 -72 17 -117t60 -72t90 -39t135 -26q152 -24 218 -52q60 96 60 220q0 118 -67 162t-217 66q-158 26 -218 52q-30 -38 -54 -93t-24 -101z" />
<glyph unicode="&#xa8;" horiz-adv-x="1704" d="M140 1236v234h198v-234h-198zM540 1236v234h200v-234h-200z" />
<glyph unicode="&#xa9;" d="M20 888q0 228 149 387t373 159t375 -159t151 -387t-151 -385t-375 -157t-373 157t-149 385zM86 888q0 -200 130 -338t326 -138t328 138t132 338t-132 340t-328 140t-326 -140t-130 -340zM320 886q0 156 47 236t175 80q34 0 72 -3t58 -7l22 -4l-2 -66q-84 14 -150 14 q-100 0 -128 -57t-28 -193q0 -128 31 -186t125 -58l150 16l2 -66q-88 -16 -152 -16q-126 0 -174 78t-48 232z" />
<glyph unicode="&#xaa;" horiz-adv-x="1060" d="M282 954q0 144 154 156l210 14v48q0 64 -25 88t-83 24l-212 -14l-4 64q140 16 216 16q88 0 129 -42t41 -138v-276q12 -40 76 -46l-4 -58q-64 2 -110 46q-130 -46 -244 -46q-64 0 -104 45t-40 119zM350 950q0 -94 82 -94q40 0 94 8t86 16l34 10v174l-200 -12 q-52 -4 -74 -27t-22 -75z" />
<glyph unicode="&#xab;" horiz-adv-x="1704" d="M450 520v74l342 264v-80l-276 -216l276 -240v-84q-272 230 -342 282zM874 520v74l342 264v-80l-276 -216l276 -240v-84q-272 230 -342 282z" />
<glyph unicode="&#xad;" horiz-adv-x="900" d="M136 482v188h630v-188h-630z" />
<glyph unicode="&#xae;" d="M20 888q0 228 149 387t373 159t375 -159t151 -387t-151 -385t-375 -157t-373 157t-149 385zM86 888q0 -200 130 -338t326 -138t328 138t132 338t-132 340t-328 140t-326 -140t-130 -340zM334 566v644h186q130 0 183 -41t53 -143q0 -156 -122 -186l134 -274h-72l-134 268 h-162v-268h-66zM400 900h164q70 0 98 27t28 99q0 66 -39 92t-125 26h-126v-244z" />
<glyph unicode="&#xaf;" horiz-adv-x="1704" />
<glyph unicode="&#xb0;" d="M204 1156q0 132 82 213t214 81t213 -81t81 -213t-81 -213t-213 -81t-214 81t-82 213zM324 1156q0 -80 48 -130t128 -50t130 50t50 130t-50 130t-130 50t-128 -50t-48 -130z" />
<glyph unicode="&#xb1;" d="M66 102v178h966v-178h-966zM66 638v180h388v258h180v-258h398v-180h-398v-252h-180v252h-388z" />
<glyph unicode="&#xb2;" d="M104 0v182l362 362q106 108 153 161t87 127t40 146q0 108 -65 154t-205 46q-66 0 -153 -10t-143 -20l-54 -10l-14 182q216 54 406 54q220 0 326 -90t106 -280q0 -148 -65 -257t-213 -257l-302 -300h610v-190h-876z" />
<glyph unicode="&#xb3;" d="M98 26l22 180q224 -36 404 -36q266 2 266 218q0 202 -252 210h-272v182h272q78 0 150 63t72 147q0 104 -61 148t-191 44q-80 0 -173 -9t-147 -17l-52 -10l-20 178q222 50 402 50q244 0 345 -85t101 -273q0 -66 -18 -119t-55 -91t-56 -52t-57 -38q112 -46 165 -113 t53 -209q0 -210 -108 -313t-340 -103q-92 0 -205 12t-179 24z" />
<glyph unicode="&#xb4;" horiz-adv-x="1704" d="M220 1360l470 190l72 -180l-474 -182z" />
<glyph unicode="&#xb5;" d="M142 1024h192v-566q2 -180 37 -242t155 -62q50 0 113 15t101 31l38 16v806h194v-1022h-194v60q-160 -82 -286 -82q-104 0 -158 44v-498h-192v1500z" />
<glyph unicode="&#x3bc;" d="M142 1024h192v-566q2 -180 37 -242t155 -62q50 0 113 15t101 31l38 16v806h194v-1022h-194v60q-160 -82 -286 -82q-104 0 -158 44v-498h-192v1500z" />
<glyph unicode="&#xb6;" horiz-adv-x="1332" d="M56 1046q0 172 106 280t274 108h774v-190h-154v-1244h-192v1244h-220v-1244h-194v664h-14q-168 0 -274 106t-106 276z" />
<glyph unicode="&#xb8;" horiz-adv-x="1704" d="M790 -342l4 54q18 -4 58 -4t49 13t9 59q0 44 -9 55t-49 11h-50v156h68v-98q62 -2 85 -28t23 -96q0 -74 -26 -102t-98 -28q-26 0 -64 8z" />
<glyph unicode="&#xb9;" d="M108 1062l432 290h188v-1352h-200v1122l-328 -216z" />
<glyph unicode="&#xba;" horiz-adv-x="1076" d="M294 1074q0 276 236 276q118 0 175 -67t57 -209q0 -284 -232 -284q-236 0 -236 284zM364 1074q0 -116 39 -167t127 -51q86 0 124 50t38 168q0 116 -37 163t-125 47t-127 -47t-39 -163z" />
<glyph unicode="&#xbb;" horiz-adv-x="1704" d="M492 238v84l276 240l-276 216v80l342 -264v-74zM916 238v84l276 240l-276 216v80l342 -264v-74z" />
<glyph unicode="&#xc0;" horiz-adv-x="1236" d="M58 0l364 1422h408l360 -1420h-200l-92 318h-554l-88 -320h-198zM314 1780l72 180l470 -190l-70 -172zM388 510h468l-182 726h-100z" />
<glyph unicode="&#xc1;" horiz-adv-x="1236" d="M58 0l364 1422h408l360 -1420h-200l-92 318h-554l-88 -320h-198zM342 1770l472 190l70 -180l-472 -182zM388 510h468l-182 726h-100z" />
<glyph unicode="&#xc2;" horiz-adv-x="1236" d="M58 0l364 1422h408l360 -1420h-200l-92 318h-554l-88 -320h-198zM282 1602l260 332h156l262 -332h-196l-142 176l-142 -176h-198zM388 510h468l-182 726h-100z" />
<glyph unicode="&#xc3;" horiz-adv-x="1236" d="M58 0l364 1422h408l360 -1420h-200l-92 318h-554l-88 -320h-198zM308 1764q114 110 194 110q68 0 146 -54t116 -54q36 0 124 82l46 -36q-104 -112 -170 -112q-64 0 -142 55t-122 55q-54 0 -142 -84zM388 510h468l-182 726h-100z" />
<glyph unicode="&#xc4;" horiz-adv-x="1236" d="M58 0l364 1422h408l360 -1420h-200l-92 318h-554l-88 -320h-198zM322 1646v234h198v-234h-198zM388 510h468l-182 726h-100zM722 1646v234h200v-234h-200z" />
<glyph unicode="&#xc5;" horiz-adv-x="1236" d="M58 0l364 1422h408l360 -1420h-200l-92 318h-554l-88 -320h-198zM388 510h468l-182 726h-100zM430 1736q0 82 55 138t137 56t138 -57t56 -137q0 -82 -56 -137t-138 -55t-137 55t-55 137zM500 1736q0 -54 35 -90t89 -36q52 0 88 36t36 90q0 52 -36 89t-88 37 q-54 0 -89 -36t-35 -90z" />
<glyph unicode="&#xc6;" horiz-adv-x="1838" d="M88 0l432 1422h1232v-192h-678v-410h554v-190h-554v-440h678v-190h-876v320h-486l-100 -320h-202zM440 510h436v694h-222z" />
<glyph unicode="&#xc7;" horiz-adv-x="1098" d="M96 708q0 390 113 563t411 173q80 0 179 -13t157 -27l60 -12l-6 -178q-230 36 -364 36q-204 0 -273 -120t-69 -422q0 -298 68 -417t278 -119q54 0 144 8t154 16l62 10l6 -180q-234 -48 -396 -48q-158 0 -262 45t-161 143t-79 225t-22 317zM510 -342l4 54q18 -4 58 -4 t48 13t8 59q0 44 -8 55t-48 11h-50v156h68v-98q62 -2 85 -28t23 -96q0 -74 -26 -102t-98 -28q-26 0 -64 8z" />
<glyph unicode="&#xc8;" horiz-adv-x="1170" d="M210 0v1434h838v-70h-764v-592h642v-70h-642v-632h764v-70h-838zM414 1846l32 62l394 -196l-32 -56z" />
<glyph unicode="&#xc9;" horiz-adv-x="1170" d="M176 0v1422h874v-192h-678v-426h556v-186h-556v-428h678v-190h-874zM374 1770l472 190l72 -180l-474 -182z" />
<glyph unicode="&#xca;" horiz-adv-x="1170" d="M176 0v1422h874v-192h-678v-426h556v-186h-556v-428h678v-190h-874zM296 1602l262 332h154l262 -332h-196l-142 176l-142 -176h-198z" />
<glyph unicode="&#xcb;" horiz-adv-x="1170" d="M176 0v1422h874v-192h-678v-426h556v-186h-556v-428h678v-190h-874zM336 1646v234h198v-234h-198zM738 1646v234h198v-234h-198z" />
<glyph unicode="&#xcc;" horiz-adv-x="462" d="M-58 1780l72 180l472 -190l-70 -172zM164 0v1422h198v-1422h-198z" />
<glyph unicode="&#xcd;" horiz-adv-x="462" d="M-70 1770l472 190l72 -180l-474 -182zM164 0v1422h198v-1422h-198z" />
<glyph unicode="&#xce;" horiz-adv-x="472" d="M-102 1602l260 332h156l262 -332h-198l-140 176l-144 -176h-196zM168 0v1422h198v-1422h-198z" />
<glyph unicode="&#xcf;" horiz-adv-x="462" d="M-68 1646v234h200v-234h-200zM164 0v1422h198v-1422h-198zM334 1646v234h198v-234h-198z" />
<glyph unicode="&#xd0;" horiz-adv-x="1304" d="M40 608v190h624v-190h-624zM170 0v1422h492q160 0 269 -46t168 -139t84 -213t25 -288q0 -138 -14 -244t-51 -201t-97 -157t-157 -98t-227 -36h-492zM366 188h296q104 0 174 42t105 123t49 171t14 212q0 248 -71 372t-271 124h-296v-1044z" />
<glyph unicode="&#xd1;" horiz-adv-x="1406" d="M156 0v1422h336l508 -1180h40v1180h200v-1422h-328l-516 1180h-42v-1180h-198zM388 1764q114 110 194 110q68 0 146 -54t116 -54q36 0 124 82l46 -36q-104 -112 -170 -112q-64 0 -142 55t-122 55q-54 0 -142 -84z" />
<glyph unicode="&#xd2;" horiz-adv-x="1342" d="M106 702q0 374 126 558t440 184t441 -183t127 -559q0 -378 -125 -551t-443 -173q-316 0 -441 175t-125 549zM312 702q0 -284 75 -408t285 -124q212 0 286 122t74 410q0 284 -76 417t-284 133t-284 -133t-76 -417zM382 1780l72 180l472 -190l-70 -172z" />
<glyph unicode="&#xd3;" horiz-adv-x="1342" d="M106 702q0 374 126 558t440 184t441 -183t127 -559q0 -378 -125 -551t-443 -173q-316 0 -441 175t-125 549zM312 702q0 -284 75 -408t285 -124q212 0 286 122t74 410q0 284 -76 417t-284 133t-284 -133t-76 -417zM370 1770l472 190l72 -180l-474 -182z" />
<glyph unicode="&#xd4;" horiz-adv-x="1342" d="M106 702q0 374 126 558t440 184t441 -183t127 -559q0 -378 -125 -551t-443 -173q-316 0 -441 175t-125 549zM312 702q0 -284 75 -408t285 -124q212 0 286 122t74 410q0 284 -76 417t-284 133t-284 -133t-76 -417zM334 1602l260 332h156l262 -332h-196l-142 176l-144 -176 h-196z" />
<glyph unicode="&#xd5;" horiz-adv-x="1342" d="M106 702q0 374 126 558t440 184t441 -183t127 -559q0 -378 -125 -551t-443 -173q-316 0 -441 175t-125 549zM312 702q0 -284 75 -408t285 -124q212 0 286 122t74 410q0 284 -76 417t-284 133t-284 -133t-76 -417zM358 1764q114 110 194 110q68 0 147 -54t117 -54 q36 0 124 82l46 -36q-104 -112 -170 -112q-64 0 -143 55t-123 55q-52 0 -140 -84z" />
<glyph unicode="&#xd6;" horiz-adv-x="1342" d="M106 702q0 374 126 558t440 184t441 -183t127 -559q0 -378 -125 -551t-443 -173q-316 0 -441 175t-125 549zM312 702q0 -284 75 -408t285 -124q212 0 286 122t74 410q0 284 -76 417t-284 133t-284 -133t-76 -417zM372 1646v234h200v-234h-200zM774 1646v234h198v-234 h-198z" />
<glyph unicode="&#xd7;" horiz-adv-x="1332" d="M360 184l378 388l-378 382l130 128l372 -386l374 386l130 -128l-376 -382l378 -388l-128 -124l-378 382l-374 -382z" />
<glyph unicode="&#xd8;" horiz-adv-x="1342" d="M106 702q0 374 127 558t441 184q122 0 218 -34l114 238l180 -66l-126 -266q180 -164 180 -614q0 -378 -124 -551t-442 -173q-120 0 -224 30l-120 -258l-176 78l126 272q-174 152 -174 602zM314 702q0 -274 76 -370l416 894q-50 18 -76 22q-23 1 -44 1q-42 0 -74 -5 q-172 -18 -235 -149t-63 -393zM534 188q58 -18 140 -18q212 0 286 122t74 410q0 276 -78 388z" />
<glyph unicode="&#xd9;" horiz-adv-x="1314" d="M154 442v980h198v-980q0 -144 79 -205t227 -61q152 0 231 61t79 205v980h202v-980q0 -242 -128 -351t-384 -109q-250 0 -377 109t-127 351zM374 1780l72 180l472 -190l-70 -172z" />
<glyph unicode="&#xda;" horiz-adv-x="1314" d="M154 442v980h198v-980q0 -144 79 -205t227 -61q152 0 231 61t79 205v980h202v-980q0 -242 -128 -351t-384 -109q-250 0 -377 109t-127 351zM362 1770l472 190l72 -180l-474 -182z" />
<glyph unicode="&#xdb;" horiz-adv-x="1314" d="M154 442v980h198v-980q0 -144 79 -205t227 -61q152 0 231 61t79 205v980h202v-980q0 -242 -128 -351t-384 -109q-250 0 -377 109t-127 351zM326 1602l260 332h156l262 -332h-198l-140 176l-144 -176h-196z" />
<glyph unicode="&#xdc;" horiz-adv-x="1314" d="M154 442v980h198v-980q0 -144 79 -205t227 -61q152 0 231 61t79 205v980h202v-980q0 -242 -128 -351t-384 -109q-250 0 -377 109t-127 351zM366 1646v234h200v-234h-200zM768 1646v234h198v-234h-198z" />
<glyph unicode="&#xdd;" horiz-adv-x="1104" d="M14 1422h222l320 -590l314 590h224l-438 -814v-608h-200v608zM234 1770l470 190l72 -180l-472 -182z" />
<glyph unicode="&#xde;" horiz-adv-x="1154" d="M110 0v1422h202v-222h314q238 0 355 -114t117 -350q0 -242 -119 -373t-353 -131h-314v-232h-202zM312 424h314q266 0 266 312q0 142 -64 209t-202 67h-314v-588z" />
<glyph unicode="&#xdf;" horiz-adv-x="1704" d="M436 0v1090q0 212 65 288t249 76q210 0 299 -65t89 -211q0 -88 -31 -134t-99 -72q-18 -8 -39 -16l-32 -12l-24 -9q-13 -5 -19 -9l-13 -9q-7 -5 -9 -10t-4 -12t-2 -15q0 -20 23 -37t149 -93l60 -36l53 -31q19 -11 44 -27t38 -25t29 -22t23 -23t14 -22t10 -24t3 -26 q0 -146 -18 -238t-70 -162t-149 -101t-249 -31l-160 8l8 70q118 -8 152 -8q92 0 160 12t112 40t72 62t42 92t18 114t4 142q0 24 -54 64t-192 118t-169 106t-31 78q0 30 6 50t24 34t33 21t53 22l62 25q66 28 80 51t14 95q0 114 -70 160t-240 46q-146 0 -193 -61t-47 -261 v-1062h-74z" />
<glyph unicode="&#xe0;" horiz-adv-x="1096" d="M72 300q0 152 80 222t248 84l286 24v74q0 156 -152 156q-68 0 -166 -7t-162 -13l-64 -8l-8 172q254 40 410 40q170 0 253 -80t83 -258v-462q2 -50 26 -71t74 -27l-6 -166q-104 0 -159 17t-101 57q-178 -76 -356 -76q-138 0 -212 85t-74 237zM208 1370l72 180l472 -190 l-70 -172zM268 304q0 -158 126 -158q58 0 131 13t117 25l44 12v284l-264 -22q-154 -12 -154 -154z" />
<glyph unicode="&#xe1;" horiz-adv-x="1096" d="M72 300q0 -152 74 -237t212 -85q80 0 169 19t137 39l50 18q46 -40 101 -57t159 -17l6 166q-50 6 -74 27t-26 71v462q0 178 -83 258t-253 80q-70 0 -172 -10t-170 -20l-68 -10l8 -172q240 28 392 28t152 -156v-74l-286 -24q-168 -14 -248 -84t-80 -222zM268 304 q0 142 154 154l264 22v-284q-160 -50 -292 -50q-126 0 -126 158zM320 1360l470 190l72 -180l-472 -182z" />
<glyph unicode="&#xe2;" horiz-adv-x="1096" d="M72 300q0 -152 74 -237t212 -85q80 0 169 19t137 39l50 18q46 -40 101 -57t159 -17l6 166q-50 6 -74 27t-26 71v462q0 178 -83 258t-253 80q-70 0 -172 -10t-170 -20l-68 -10l8 -172q240 28 392 28t152 -156v-74l-286 -24q-168 -14 -248 -84t-80 -222zM164 1192l260 332 h156l262 -332h-196l-142 176l-144 -176h-196zM268 304q0 142 154 154l264 22v-284q-160 -50 -292 -50q-126 0 -126 158z" />
<glyph unicode="&#xe3;" horiz-adv-x="1096" d="M72 300q0 -152 74 -237t212 -85q80 0 169 19t137 39l50 18q46 -40 101 -57t159 -17l6 166q-50 6 -74 27t-26 71v462q0 178 -83 258t-253 80q-70 0 -172 -10t-170 -20l-68 -10l8 -172q240 28 392 28t152 -156v-74l-286 -24q-168 -14 -248 -84t-80 -222zM188 1354 q114 110 194 110q68 0 147 -54t117 -54q36 0 124 82l46 -36q-104 -112 -170 -112q-64 0 -143 55t-123 55q-52 0 -140 -84zM268 304q0 142 154 154l264 22v-284q-160 -50 -292 -50q-126 0 -126 158z" />
<glyph unicode="&#xe4;" horiz-adv-x="1096" d="M72 300q0 -152 74 -237t212 -85q80 0 169 19t137 39l50 18q46 -40 101 -57t159 -17l6 166q-50 6 -74 27t-26 71v462q0 178 -83 258t-253 80q-70 0 -172 -10t-170 -20l-68 -10l8 -172q240 28 392 28t152 -156v-74l-286 -24q-168 -14 -248 -84t-80 -222zM198 1236v234h200 v-234h-200zM268 304q0 142 154 154l264 22v-284q-160 -50 -292 -50q-126 0 -126 158zM600 1236v234h198v-234h-198z" />
<glyph unicode="&#xe5;" horiz-adv-x="1096" d="M72 300q0 -152 74 -237t212 -85q80 0 169 19t137 39l50 18q46 -40 101 -57t159 -17l6 166q-50 6 -74 27t-26 71v462q0 178 -83 258t-253 80q-70 0 -172 -10t-170 -20l-68 -10l8 -172q240 28 392 28t152 -156v-74l-286 -24q-168 -14 -248 -84t-80 -222zM268 304 q0 142 154 154l264 22v-284q-160 -50 -292 -50q-126 0 -126 158zM310 1328q0 82 55 137t137 55t137 -56t55 -136q0 -82 -55 -138t-137 -56t-137 56t-55 138zM378 1328q0 -54 36 -91t90 -37q52 0 87 37t35 91q0 52 -35 88t-87 36q-54 0 -90 -36t-36 -88z" />
<glyph unicode="&#xe6;" horiz-adv-x="1694" d="M108 300q0 164 87 229t281 81l248 20v74q0 76 -40 116t-112 40q-68 0 -166 -5t-162 -11l-64 -4l-8 170q254 34 410 34q200 0 272 -122q102 122 306 122q212 0 317 -114t105 -358l-14 -142h-650q2 -142 58 -208t190 -66q72 0 166 4t152 8l58 6l4 -154q-234 -42 -408 -42 q-202 0 -304 106l-60 -26q-178 -80 -378 -80q-140 0 -214 84t-74 238zM306 304q0 -158 124 -158q114 0 318 58q-28 110 -28 276l-260 -22q-80 -6 -117 -42t-37 -112zM918 582h470q0 158 -53 224t-175 66q-124 0 -183 -69t-59 -221z" />
<glyph unicode="&#xe7;" horiz-adv-x="892" d="M92 526q0 278 99 398t329 120q46 0 120 -8t124 -16l52 -8l-10 -168q-160 18 -238 18q-164 0 -222 -73t-58 -263q0 -212 55 -288t227 -76l238 16l8 -168q-200 -32 -300 -32q-238 0 -331 124t-93 424zM436 -342l4 54q18 -4 58 -4t49 13t9 59q0 44 -9 55t-49 11h-50v156h68 v-98q62 -2 85 -28t23 -96q0 -74 -26 -102t-98 -28q-26 0 -64 8z" />
<glyph unicode="&#xe8;" horiz-adv-x="1016" d="M90 504q0 540 436 540q214 0 319 -114t105 -358l-12 -142h-652q0 -142 57 -208t191 -66q70 0 165 4t153 8l60 6l4 -154q-234 -42 -408 -42q-226 2 -322 128t-96 398zM192 1370l72 180l472 -190l-70 -172zM284 582h474q0 158 -54 224t-178 66q-122 0 -181 -69t-61 -221z " />
<glyph unicode="&#xe9;" horiz-adv-x="1016" d="M90 504q0 540 436 540q214 0 319 -114t105 -358l-12 -142h-652q0 -142 57 -208t191 -66q70 0 165 4t153 8l60 6l4 -154q-234 -42 -408 -42q-226 2 -322 128t-96 398zM266 1360l472 190l70 -180l-472 -182zM284 582h474q0 158 -54 224t-178 66q-122 0 -181 -69t-61 -221z " />
<glyph unicode="&#xea;" horiz-adv-x="1016" d="M90 504q0 540 436 540q214 0 319 -114t105 -358l-12 -142h-652q0 -142 57 -208t191 -66q70 0 165 4t153 8l60 6l4 -154q-234 -42 -408 -42q-226 2 -322 128t-96 398zM204 1192l260 332h156l262 -332h-196l-142 176l-142 -176h-198zM284 582h474q0 158 -54 224t-178 66 q-122 0 -181 -69t-61 -221z" />
<glyph unicode="&#xeb;" horiz-adv-x="1016" d="M90 504q0 540 436 540q214 0 319 -114t105 -358l-12 -142h-652q0 -142 57 -208t191 -66q70 0 165 4t153 8l60 6l4 -154q-234 -42 -408 -42q-226 2 -322 128t-96 398zM248 1236v234h198v-234h-198zM284 582h474q0 158 -54 224t-178 66q-122 0 -181 -69t-61 -221zM650 1236 v234h198v-234h-198z" />
<glyph unicode="&#xec;" horiz-adv-x="534" d="M-86 1370l72 180l470 -190l-68 -172zM174 0v1022h194v-1022h-194z" />
<glyph unicode="&#xed;" horiz-adv-x="534" d="M28 1360l472 190l72 -180l-474 -182zM174 0v1022h194v-1022h-194z" />
<glyph unicode="&#xee;" horiz-adv-x="534" d="M-72 1192l260 332h156l262 -332h-196l-142 176l-144 -176h-196zM174 0v1022h194v-1022h-194z" />
<glyph unicode="&#xef;" horiz-adv-x="534" d="M-32 1236v234h198v-234h-198zM174 0v1022h194v-1022h-194zM368 1236v234h200v-234h-200z" />
<glyph unicode="&#xf0;" />
<glyph unicode="&#xf1;" horiz-adv-x="1174" d="M178 0h192v802q148 62 262 62q118 0 155 -73t37 -259v-532h194v534q0 278 -73 394t-279 116q-56 0 -130 -20t-120 -40l-46 -22v60h-192v-1022zM296 1354q114 110 196 110q68 0 146 -54t116 -54q36 0 124 82l46 -36q-104 -112 -170 -112q-64 0 -142 55t-122 55 q-54 0 -142 -84z" />
<glyph unicode="&#xf2;" horiz-adv-x="1096" d="M158 520q0 266 103 395t347 129q236 0 341 -131t105 -393q0 -274 -98 -408t-348 -134q-252 0 -351 132t-99 410zM208 1370l72 180l472 -190l-70 -172zM354 520q0 -200 51 -283t203 -83q150 0 200 85t50 281q0 186 -57 268t-193 82q-144 0 -199 -79t-55 -271z" />
<glyph unicode="&#xf3;" horiz-adv-x="1096" d="M158 520q0 -278 99 -410t351 -132q250 0 348 134t98 408q0 262 -105 393t-341 131q-244 0 -347 -129t-103 -395zM278 1360l472 190l72 -180l-474 -182zM354 520q0 192 55 271t199 79q136 0 193 -82t57 -268q0 -196 -50 -281t-200 -85q-152 0 -203 83t-51 283z" />
<glyph unicode="&#xf4;" horiz-adv-x="1096" d="M158 520q0 -278 99 -410t351 -132q250 0 348 134t98 408q0 262 -105 393t-341 131q-244 0 -347 -129t-103 -395zM200 1192l260 332h156l262 -332h-196l-142 176l-142 -176h-198zM354 520q0 192 55 271t199 79q136 0 193 -82t57 -268q0 -196 -50 -281t-200 -85 q-152 0 -203 83t-51 283z" />
<glyph unicode="&#xf5;" horiz-adv-x="1096" d="M158 520q0 -278 99 -410t351 -132q250 0 348 134t98 408q0 262 -105 393t-341 131q-244 0 -347 -129t-103 -395zM226 1354q114 110 194 110q68 0 146 -54t116 -54q36 0 124 82l46 -36q-104 -112 -170 -112q-64 0 -142 55t-122 55q-54 0 -142 -84zM354 520q0 192 55 271 t199 79q136 0 193 -82t57 -268q0 -196 -50 -281t-200 -85q-152 0 -203 83t-51 283z" />
<glyph unicode="&#xf6;" horiz-adv-x="1096" d="M158 520q0 -278 99 -410t351 -132q250 0 348 134t98 408q0 262 -105 393t-341 131q-244 0 -347 -129t-103 -395zM240 1236v234h198v-234h-198zM354 520q0 192 55 271t199 79q136 0 193 -82t57 -268q0 -196 -50 -281t-200 -85q-152 0 -203 83t-51 283zM642 1236v234h198 v-234h-198z" />
<glyph unicode="&#xf7;" d="M160 678v214h656v-214h-656zM274 768v190h436v-190h-436zM396 170v228h194v-228h-194z" />
<glyph unicode="&#xf8;" horiz-adv-x="1076" d="M122 534q0 282 95 395t325 113q94 0 170 -24l82 196l62 -22l-82 -200q180 -104 180 -462q0 -300 -84 -424t-328 -124q-98 0 -174 18l-86 -212l-60 20l86 212q-106 48 -146 167t-40 347zM198 534q0 -200 28 -302t108 -146l354 868q-70 22 -146 22q-198 0 -271 -93 t-73 -349zM396 62q56 -14 146 -14t151 20t98 54t56 99t25 133t6 176q0 300 -132 394z" />
<glyph unicode="&#xf9;" horiz-adv-x="1046" d="M168 490v532h194v-530q0 -200 34 -269t156 -69q50 0 113 15t101 31l38 16v806h196v-1022h-196v60q-160 -82 -286 -82q-210 0 -280 112t-70 400zM228 1370l72 180l470 -190l-70 -172z" />
<glyph unicode="&#xfa;" horiz-adv-x="1046" d="M168 490q0 -288 70 -400t280 -112q56 0 127 21t115 41l44 20v-60h196v1022h-196v-806q-138 -62 -252 -62q-122 0 -156 69t-34 269v530h-194v-532zM296 1360l472 190l72 -180l-474 -182z" />
<glyph unicode="&#xfb;" horiz-adv-x="1046" d="M168 490q0 -288 70 -400t280 -112q56 0 127 21t115 41l44 20v-60h196v1022h-196v-806q-138 -62 -252 -62q-122 0 -156 69t-34 269v530h-194v-532zM220 1192l260 332h154l264 -332h-198l-140 176l-144 -176h-196z" />
<glyph unicode="&#xfc;" horiz-adv-x="1046" d="M168 490q0 -288 70 -400t280 -112q56 0 127 21t115 41l44 20v-60h196v1022h-196v-806q-138 -62 -252 -62q-122 0 -156 69t-34 269v530h-194v-532zM258 1236v234h198v-234h-198zM660 1236v234h198v-234h-198z" />
<glyph unicode="&#xfd;" horiz-adv-x="982" d="M24 1022h194l230 -836h62l234 836h192l-288 -1046l-114 -420h-192l120 444h-158zM244 1360l470 190l72 -180l-472 -182z" />
<glyph unicode="&#xfe;" horiz-adv-x="1100" d="M204 -446v1904h196v-474q146 60 272 60q208 0 297 -118t89 -400q0 -312 -107 -430t-383 -118q-30 0 -90 4t-78 4v-432h-196zM400 164q118 -10 166 -10q180 0 238 82t58 290q0 186 -48 263t-164 77q-50 0 -112 -11t-100 -21l-38 -10v-660z" />
<glyph unicode="&#xff;" horiz-adv-x="982" d="M62 1024l316 -1024h126l-148 -472h76l470 1496h-76l-304 -958h-84l-300 958h-76zM280 1306v128h72v-128h-72zM628 1306v128h72v-128h-72z" />
<glyph unicode="&#x152;" horiz-adv-x="1932" d="M122 706q0 392 119 565t421 173q132 0 272 -22h866v-194h-670v-408h548v-192h-548v-436h670v-192h-862q-150 -22 -276 -22q-312 0 -426 172t-114 556zM328 708q0 -300 72 -418t292 -118q56 0 242 16v1042q-240 20 -248 20q-208 0 -283 -120t-75 -422z" />
<glyph unicode="&#x153;" horiz-adv-x="1794" d="M120 520q0 266 104 395t348 129q248 0 350 -164q102 164 336 164q214 0 319 -114t105 -358l-12 -142h-652q0 -142 57 -208t191 -66q70 0 164 4t154 8l58 6l4 -154q-232 -42 -406 -42q-228 0 -326 146q-98 -146 -342 -146q-252 0 -352 132t-100 410zM318 520 q0 -200 51 -283t203 -83q150 0 200 85t50 281q0 186 -57 268t-193 82q-144 0 -199 -79t-55 -271zM1016 582h472q0 158 -53 224t-177 66q-122 0 -182 -70t-60 -220z" />
<glyph unicode="&#x178;" horiz-adv-x="1104" d="M52 1434h84l420 -736l412 736h86l-462 -818v-616h-74v616zM342 1716v128h72v-128h-72zM690 1716v128h72v-128h-72z" />
<glyph unicode="&#x2c6;" horiz-adv-x="1704" d="M502 1192l260 332h156l262 -332h-196l-142 176l-144 -176h-196z" />
<glyph unicode="&#x2dc;" horiz-adv-x="1704" d="M160 1354q114 110 194 110q68 0 146 -54t116 -54t126 82l44 -36q-104 -112 -170 -112q-64 0 -142 55t-122 55q-54 0 -142 -84z" />
<glyph unicode="&#x2013;" horiz-adv-x="1704" />
<glyph unicode="&#x2014;" horiz-adv-x="1704" />
<glyph unicode="&#x2018;" horiz-adv-x="348" d="M2 1022l110 466h184l-94 -466h-200z" />
<glyph unicode="&#x2019;" horiz-adv-x="348" d="M50 1080l94 466h200l-110 -466h-184z" />
<glyph unicode="&#x201c;" horiz-adv-x="1704" />
<glyph unicode="&#x201d;" horiz-adv-x="664" d="M82 1422h186l-6 -472h-178zM404 1422h186l-6 -472h-178z" />
<glyph unicode="&#x2022;" d="M506 0v164h82v-164h-82z" />
<glyph unicode="&#x2026;" horiz-adv-x="1518" d="M136 0v270h210v-270h-210zM642 0v270h210v-270h-210zM1148 0v270h210v-270h-210z" />
<glyph unicode="&#x2039;" horiz-adv-x="1704" />
<glyph unicode="&#x203a;" d="M130 114v206l522 316l-522 304v204l710 -410v-202l-353 -210q-279 -168 -357 -208z" />
<glyph unicode="&#x20ac;" horiz-adv-x="1162" d="M88 434v156h114v86v86h-114v156h124q28 246 141 354t361 108q80 0 171 -10t143 -18l50 -10l-8 -178q-198 22 -330 22q-158 0 -228 -61t-90 -209h512v-154h-524q-2 -26 -2 -86t2 -86h524v-156h-512q20 -140 91 -201t231 -61q52 0 134 6l138 10l54 6l6 -180 q-200 -36 -362 -36q-254 0 -365 108t-137 348h-124z" />
<glyph unicode="&#x2122;" d="M14 1208v64h410v-64h-170v-528h-68v528h-172zM496 678v594h102l172 -496l178 496h102v-594h-64v528l-182 -506h-70l-172 506v-528h-66z" />
<glyph unicode="&#xe000;" horiz-adv-x="1020" d="M0 1020h1020v-1020h-1020v1020z" />
<glyph unicode="&#xfb01;" horiz-adv-x="1194" d="M50 848v174h122v80q0 216 63 296t221 80l216 -18l-2 -160q-106 4 -170 4q-78 0 -106 -42t-28 -162v-78h282v-174h-282v-848h-194v848h-122zM846 0v1022h194v-1022h-194zM846 1220v216h194v-216h-194z" />
<glyph unicode="&#xfb02;" horiz-adv-x="1204" d="M50 848v174h122v80q0 216 63 296t221 80l216 -18l-2 -160q-106 4 -170 4q-78 0 -106 -42t-28 -162v-78h282v-174h-282v-848h-194v848h-122zM850 0v1458h194v-1458h-194z" />
<glyph unicode="&#xfb03;" horiz-adv-x="1884" d="M50 848v174h122v80q0 216 63 296t221 80l216 -18l-2 -160q-106 4 -170 4q-78 0 -106 -42t-28 -162v-78h282v-174h-282v-848h-194v848h-122zM740 848v174h122v80q0 216 63 296t221 80l216 -18l-2 -160q-106 4 -170 4q-78 0 -106 -42t-28 -162v-78h282v-174h-282v-848h-194 v848h-122zM1536 0v1022h194v-1022h-194zM1536 1220v216h194v-216h-194z" />
<glyph unicode="&#xfb04;" horiz-adv-x="1894" d="M50 848v174h122v80q0 216 63 296t221 80l216 -18l-2 -160q-106 4 -170 4q-78 0 -106 -42t-28 -162v-78h282v-174h-282v-848h-194v848h-122zM740 848v174h122v80q0 216 63 296t221 80l216 -18l-2 -160q-106 4 -170 4q-78 0 -106 -42t-28 -162v-78h282v-174h-282v-848h-194 v848h-122zM1540 0v1458h194v-1458h-194z" />
<glyph horiz-adv-x="480" />
</font>
</defs>
</svg>
